<svg xmlns="http://www.w3.org/2000/svg" version="1.1" xmlns:xlink="http://www.w3.org/1999/xlink" xmlns:svgjs="http://svgjs.dev/svgjs" width="1000" height="1000" viewBox="0 0 1000 1000"><rect width="1000" height="1000" fill="#ffffff"></rect><g transform="matrix(0.7,0,0,0.7,149.5757576422796,443.32983847909884)"><svg viewBox="0 0 396 64" data-background-color="#ffffff" preserveAspectRatio="xMidYMid meet" height="161" width="1000" xmlns="http://www.w3.org/2000/svg" xmlns:xlink="http://www.w3.org/1999/xlink"><g id="tight-bounds" transform="matrix(1,0,0,1,0.24000003763251243,0.18181440905144086)"><svg viewBox="0 0 395.52 63.63637248236224" height="63.63637248236224" width="395.52"><g><svg viewBox="0 0 501.5226806509273 80.69145457689932" height="63.63637248236224" width="395.52"><g transform="matrix(1,0,0,1,0,11.15200276714021)"><svg viewBox="0 0 395.52 58.3874490426189" height="58.3874490426189" width="395.52"><g id="textblocktransform"><svg viewBox="0 0 395.52 58.3874490426189" height="58.3874490426189" width="395.52" id="textblock"><g><svg viewBox="0 0 395.52 58.3874490426189" height="58.3874490426189" width="395.52"><g transform="matrix(1,0,0,1,0,0)"><svg width="395.52" viewBox="3.690000057220459 -35.0099983215332 237.13999938964844 35.0099983215332" height="58.3874490426189" data-palette-color="#0080ff"><g class="wordmark-text-0" data-fill-palette-color="primary" id="text-0"><path d="M38.67-27.29L38.67-23.24Q38.67-21.07 38.13-19.36 37.6-17.65 36.68-16.35 35.77-15.04 34.57-14.11 33.37-13.18 32.07-12.59 30.76-11.99 29.43-11.72 28.1-11.45 26.93-11.45L26.93-11.45 40.19 0 30.37 0 17.14-11.45 12.57-11.45 12.57-17.8 26.93-17.8Q28.13-17.9 29.11-18.3 30.1-18.7 30.82-19.38 31.54-20.07 31.93-21.03 32.32-22 32.32-23.24L32.32-23.24 32.32-27.25Q32.32-27.78 32.19-28.06 32.06-28.34 31.85-28.48 31.64-28.61 31.41-28.64 31.18-28.66 30.98-28.66L30.98-28.66 10.03-28.66 10.03 0 3.69 0 3.69-31.81Q3.69-32.47 3.93-33.06 4.17-33.64 4.6-34.08 5.03-34.52 5.62-34.77 6.2-35.01 6.88-35.01L6.88-35.01 30.98-35.01Q33.11-35.01 34.57-34.24 36.04-33.47 36.95-32.31 37.87-31.15 38.27-29.81 38.67-28.47 38.67-27.29L38.67-27.29ZM79.39-31.81L79.39 0 73.04 0 73.04-8.59 50.73-8.59 50.73 0 44.38 0 44.38-17.5Q44.38-21.34 45.7-24.56 47.02-27.78 49.36-30.1 51.71-32.42 54.9-33.72 58.1-35.01 61.89-35.01L61.89-35.01 76.19-35.01Q76.85-35.01 77.44-34.77 78.02-34.52 78.46-34.08 78.9-33.64 79.15-33.06 79.39-32.47 79.39-31.81L79.39-31.81ZM50.73-17.5L50.73-14.94 73.04-14.94 73.04-28.66 61.89-28.66Q61.59-28.66 60.65-28.58 59.71-28.49 58.48-28.15 57.25-27.81 55.88-27.1 54.51-26.39 53.37-25.15 52.22-23.9 51.47-22.03 50.73-20.17 50.73-17.5L50.73-17.5ZM120.41-10.3L120.41-10.3Q120.41-8.42 119.93-6.92 119.45-5.42 118.67-4.27 117.89-3.13 116.84-2.32 115.79-1.51 114.67-1 113.54-0.49 112.39-0.24 111.23 0 110.2 0L110.2 0 85.71 0 85.71-6.35 110.2-6.35Q112.03-6.35 113.04-7.42 114.06-8.5 114.06-10.3L114.06-10.3Q114.06-11.18 113.79-11.91 113.52-12.65 113.02-13.18 112.52-13.72 111.8-14.01 111.08-14.31 110.2-14.31L110.2-14.31 95.6-14.31Q94.06-14.31 92.28-14.86 90.5-15.41 88.97-16.63 87.45-17.85 86.43-19.82 85.42-21.8 85.42-24.66L85.42-24.66Q85.42-27.51 86.43-29.48 87.45-31.45 88.97-32.68 90.5-33.91 92.28-34.46 94.06-35.01 95.6-35.01L95.6-35.01 117.21-35.01 117.21-28.66 95.6-28.66Q93.79-28.66 92.78-27.56 91.77-26.46 91.77-24.66L91.77-24.66Q91.77-22.83 92.78-21.77 93.79-20.7 95.6-20.7L95.6-20.7 110.2-20.7 110.25-20.7Q111.27-20.68 112.42-20.42 113.57-20.17 114.7-19.63 115.84-19.09 116.87-18.27 117.89-17.46 118.68-16.31 119.48-15.16 119.94-13.67 120.41-12.18 120.41-10.3ZM132.07-35.01L132.07-20.7 154.36-20.7 154.36-35.01 160.71-35.01 160.71 0 154.36 0 154.36-14.31 132.07-14.31 132.07 0 125.72 0 125.72-35.01 132.07-35.01ZM196.91-20.7L196.91-14.31 176.87-14.31 176.87-20.7 196.91-20.7ZM199.77-6.35L199.77 0 176.87 0Q175.55 0 173.99-0.46 172.43-0.93 171.1-1.99 169.77-3.05 168.87-4.75 167.98-6.45 167.98-8.91L167.98-8.91 167.98-31.81Q167.98-32.47 168.23-33.06 168.47-33.64 168.9-34.08 169.33-34.52 169.91-34.77 170.5-35.01 171.18-35.01L171.18-35.01 199.77-35.01 199.77-28.66 174.33-28.66 174.33-8.91Q174.33-7.67 174.99-7.01 175.65-6.35 176.92-6.35L176.92-6.35 199.77-6.35ZM240.83-20.36L240.83-14.65Q240.83-11.45 239.72-8.76 238.61-6.08 236.66-4.14 234.7-2.2 232.02-1.1 229.33 0 226.18 0L226.18 0 209.05 0Q208.36 0 207.78-0.24 207.19-0.49 206.76-0.92 206.34-1.34 206.09-1.93 205.85-2.51 205.85-3.2L205.85-3.2 205.85-31.81Q205.85-32.47 206.09-33.06 206.34-33.64 206.76-34.08 207.19-34.52 207.78-34.77 208.36-35.01 209.05-35.01L209.05-35.01 226.18-35.01Q229.33-35.01 232.02-33.91 234.7-32.81 236.66-30.87 238.61-28.93 239.72-26.23 240.83-23.54 240.83-20.36L240.83-20.36ZM234.48-14.65L234.48-20.36Q234.48-22.22 233.89-23.75 233.29-25.29 232.19-26.38 231.09-27.47 229.57-28.06 228.04-28.66 226.18-28.66L226.18-28.66 212.19-28.66 212.19-6.35 226.18-6.35Q228.04-6.35 229.57-6.95 231.09-7.54 232.19-8.63 233.29-9.72 233.89-11.24 234.48-12.77 234.48-14.65L234.48-14.65Z" fill="#0080ff" data-fill-palette-color="primary"></path></g></svg></g></svg></g></svg></g></svg></g><g transform="matrix(1,0,0,1,409.3038754201853,0)"><svg viewBox="0 0 92.21880523074208 80.69145457689932" height="80.69145457689932" width="92.21880523074208"><g><svg xmlns="http://www.w3.org/2000/svg" xmlns:xlink="http://www.w3.org/1999/xlink" version="1.1" x="0" y="0" viewBox="0 31.900009155273438 512 448" style="enable-background:new 0 0 512 512;" xml:space="preserve" height="80.69145457689932" width="92.21880523074208" class="icon-icon-0" data-fill-palette-color="accent" id="icon-0"><g fill="#0080ff" data-fill-palette-color="accent"><path d="M160 181.3c41.2 0 74.7-33.5 74.7-74.7 0-41.2-33.5-74.7-74.7-74.7s-74.7 33.5-74.7 74.7C85.3 147.8 118.8 181.3 160 181.3z" fill="#0080ff" data-fill-palette-color="accent"></path><path d="M294 217.4c-11.1-10-24.4-17.7-39.1-22.1l-17.2-5-73.6 73.6-73.7-73.6-17.2 5C29.5 208.4 0 248 0 293.7V384h228.7c-3-12-4.7-24.4-4.7-37.3C224 292.7 251.9 245.1 294 217.4z" fill="#0080ff" data-fill-palette-color="accent"></path><path d="M378.7 213.3c-73.5 0-133.3 59.7-133.3 133.3 0 73.5 59.8 133.3 133.3 133.3S512 420.1 512 346.7C512 273.1 452.1 213.3 378.7 213.3zM343.9 366.2l-15.1 15.1-39.9-39.9 39.9-39.9 15.1 15.1-24.8 24.8L343.9 366.2zM370 401.7l-20-7.3 37.4-103 20 7.3L370 401.7zM428.5 381.3l-15.1-15.1 24.8-24.8-24.8-24.8 15.1-15.1 39.9 39.9L428.5 381.3z" fill="#0080ff" data-fill-palette-color="accent"></path></g></svg></g></svg></g></svg></g><defs></defs></svg><rect width="395.52" height="63.63637248236224" fill="none" stroke="none" visibility="hidden"></rect></g></svg></g></svg>