<svg xmlns="http://www.w3.org/2000/svg" xmlns:xlink="http://www.w3.org/1999/xlink" version="1.1" width="1080" height="1080" viewBox="0 0 1080 1080" xml:space="preserve">
<desc>Created with Fabric.js 3.5.0</desc>
<defs>
</defs>
<rect x="0" y="0" width="100%" height="100%" fill="#333333"/>
<g transform="matrix(1 0 0 1 540 572.77)" style="filter: url(#SVGID_4);" id="794002">
<filter id="SVGID_4" y="-25.75%" height="151.5%" x="-21%" width="142%">
	<feGaussianBlur in="SourceAlpha" stdDeviation="0"/>
	<feOffset dx="5" dy="13" result="oBlur"/>
	<feFlood flood-color="rgb(72,152,156)" flood-opacity="1"/>
	<feComposite in2="oBlur" operator="in"/>
	<feMerge>
		<feMergeNode/>
		<feMergeNode in="SourceGraphic"/>
	</feMerge>
</filter>
		
<path xml:space="preserve" font-family="Aladin" font-size="200" font-weight="normal" style="stroke: rgb(72,152,156); stroke-width: 5; stroke-dasharray: none; stroke-linecap: butt; stroke-dashoffset: 0; stroke-linejoin: miter; stroke-miterlimit: 4; is-custom-font: none; font-file-url: none; fill: rgb(255,255,255); fill-rule: nonzero; opacity: 1; white-space: pre;" d="M-68.10-25.77L-68.10-25.77L-68.10-22.97L-32.70-22.97L-32.70-23.37Q-32.50-28.17-32.50-35.47Q-32.50-42.77-32.70-48.27Q-32.90-53.77-33.10-57.57Q-33.30-61.37-33.60-64.17Q-33.90-66.97-34.10-68.47Q-34.30-69.97-34.30-71.17Q-34.30-72.37-32.10-73.97L-32.10-73.97Q-22.50-80.37-10.70-80.37L-10.70-80.37Q-3.30-80.37-3.30-77.77L-3.30-77.77Q-3.30-77.57-3.70-75.57L-3.70-75.57Q-7.50-56.57-8.50-22.97L-8.50-22.97Q-9.10 10.63-9.10 13.03L-9.10 13.03Q-9.10 44.03-5.50 56.03L-5.50 56.03Q-4.90 57.63-4.90 58.73Q-4.90 59.83-6.50 61.23L-6.50 61.23Q-13.90 66.03-25.70 66.03L-25.70 66.03Q-33.30 66.03-34.30 60.83L-34.30 60.83Q-34.90 58.03-34.90 52.13Q-34.90 46.23-34.20 34.03Q-33.50 21.83-33.10-8.57L-33.10-8.57L-68.10-8.57Q-68.10 37.03-65.30 55.43L-65.30 55.43Q-65.30 60.23-74.50 63.33Q-83.70 66.43-89.70 66.43Q-95.70 66.43-95.70 64.63L-95.70 64.63Q-95.70 63.43-95.10 61.63L-95.10 61.63Q-91.30 53.23-91.30-5.97L-91.30-5.97L-91.30-8.57L-103.10-8.57Q-104.70-8.57-104.70-9.77L-104.70-9.77Q-104.70-10.17-103.90-12.87Q-103.10-15.57-100.20-19.17Q-97.30-22.77-93.70-22.77L-93.70-22.77L-91.50-22.77Q-91.50-62.17-96.10-68.17L-96.10-68.17L-96.90-69.37Q-98.10-70.37-98.10-71.87Q-98.10-73.37-95.90-74.37L-95.90-74.37Q-92.90-76.17-85.20-77.97Q-77.50-79.77-71.30-79.77Q-65.10-79.77-65.10-76.97L-65.10-76.97L-65.10-76.37Q-67.50-55.57-68.10-25.77ZM77.90-13.57L74.90-12.97Q72.70-12.37 72.70-11.67Q72.70-10.97 77.50-9.17Q82.30-7.37 86.60-3.57Q90.90 0.23 92.70 5.63L92.70 5.63Q95.50 13.83 95.50 23.23Q95.50 32.63 96.90 38.73Q98.30 44.83 100.30 48.03L100.30 48.03Q104.30 54.83 107.70 56.43L107.70 56.43L109.10 57.23Q110.30 58.03 110.30 59.23L110.30 59.23Q110.30 62.23 100.50 64.53Q90.70 66.83 85.30 66.83L85.30 66.83Q74.70 66.83 71.80 58.33Q68.90 49.83 68.90 29.23L68.90 29.23L68.90 18.23Q68.90 0.83 58.50-3.97L58.50-3.97Q54.50-5.77 48.90-5.77L48.90-5.77L48.70-5.77Q46.90-5.77 46.90-9.27Q46.90-12.77 49.00-16.37Q51.10-19.97 52.70-19.97L52.70-19.97Q59.30-19.97 64.10-22.47Q68.90-24.97 71.10-28.57L71.10-28.57Q75.70-36.17 76.10-41.57L76.10-41.57L76.10-44.17Q76.10-51.57 73.70-56.67Q71.30-61.77 67.70-63.77L67.70-63.77Q61.70-66.97 55.50-66.97Q49.30-66.97 45.30-65.97L45.30-65.97Q39.70-64.37 39.70-62.57L39.70-62.57Q37.90-36.37 37.90-12.07Q37.90 12.23 38.60 25.13Q39.30 38.03 40.00 45.93Q40.70 53.83 40.70 55.23L40.70 55.23Q40.70 57.83 39.30 58.83L39.30 58.83Q31.10 66.43 13.50 66.43L13.50 66.43Q10.50 66.43 10.50 64.43L10.50 64.43Q10.50 63.83 11.10 61.63L11.10 61.63Q13.10 57.03 14.00 32.43Q14.90 7.83 14.90-12.47Q14.90-32.77 14.10-45.37L14.10-45.37Q12.90-64.37 10.10-68.17L10.10-68.17Q7.90-70.97 7.90-72.07Q7.90-73.17 10.10-74.37L10.10-74.37Q22.90-80.37 56.50-80.37L56.50-80.37Q83.50-80.37 96.90-65.17L96.90-65.17Q104.10-56.77 104.10-44.17L104.10-44.17Q104.10-36.57 101.10-30.57Q98.10-24.57 93.70-21.37L93.70-21.37Q85.30-14.97 77.90-13.57L77.90-13.57Z"/></g>
</svg>